<svg width="100" height="100" xmlns="http://www.w3.org/2000/svg"><style>path {fill: #313131} @media (prefers-color-scheme: dark) {path {fill:#f6f5f4}}</style><rect width="100" height="100" fill="#33d17a"/><path d="m50 10a40 40 0 0 0-40 40 40 40 0 0 0 40 40 40 40 0 0 0 40-40 40 40 0 0 0-40-40zm0 10a30 30 0 0 1 30 30 30 30 0 0 1-30 30 30 30 0 0 1-30-30 30 30 0 0 1 30-30z"/><path d="m47.7 22.2c-7.51-0.0664-13 3.4-15.1 7.81-6 12.8 36.7 37 43.3 25 3.8-6.9 2.3-19.9-12.8-28.3v-0.00977c-5.66-3.15-10.9-4.46-15.4-4.5zm4.2 3.13c0.618-0.00466 1.3 0.0745 2 0.246 2.23 0.551 3.78 1.85 3.46 2.9-0.324 1.05-2.4 1.45-4.63 0.9-2.23-0.551-3.78-1.85-3.46-2.9 0.225-0.722 1.28-1.14 2.63-1.15zm-11.5 2.94c0.797-0.00153 1.39 0.245 1.6 0.74 0.418 0.99-0.878 2.59-2.89 3.59-2.02 0.99-3.99 0.996-4.41 0.00586-0.418-0.99 0.88-2.6 2.89-3.59 1.01-0.495 2.01-0.745 2.81-0.746zm25.2 3.98c0.921-0.00587 2.22 0.686 3.37 1.88 1.6 1.66 2.29 3.66 1.54 4.46-0.75 0.81-2.65 0.119-4.24-1.54-1.6-1.66-2.28-3.65-1.54-4.46 0.211-0.228 0.513-0.338 0.873-0.34zm-10.7 2.79c0.951 0.00207 2.01 0.284 3.01 0.861 2.28 1.32 3.38 3.67 2.47 5.26-0.918 1.59-3.51 1.81-5.79 0.49-2.28-1.32-3.38-3.67-2.47-5.26 0.513-0.894 1.56-1.35 2.78-1.35zm-12.8 2.19c0.853 0.0075 1.8 0.361 2.62 1.05 1.54 1.29 2.02 3.27 1.08 4.42-0.942 1.15-2.96 1.04-4.49-0.252-1.54-1.29-2.02-3.27-1.08-4.42 0.441-0.539 1.12-0.802 1.87-0.795zm30.1 9.49c0.845-0.015 1.62 1.37 1.74 3.18 0.12 1.86-0.494 3.46-1.38 3.57-0.877 0.11-1.69-1.31-1.82-3.17-0.12-1.86 0.495-3.46 1.38-3.57 0.0274-0.00344 0.0548-0.00538 0.082-0.00586zm-11.1 1.62c0.508 0.00368 1.04 0.0975 1.58 0.291 1.88 0.68 2.99 2.37 2.46 3.76-0.53 1.39-2.48 1.97-4.37 1.28-1.88-0.68-2.99-2.37-2.46-3.76 0.381-1 1.5-1.58 2.79-1.57zm-19.8 0.24c-4.13 3.55-6.84 7.47-8.68 12.3-4 10.6 9.28 19.2 17.2 8.62 2.91-3.91 4.72-7.96 5.72-12.7-4.23-1.2-11.6-5.29-14.2-8.2z"/></svg>
