<svg width="378" height="378" version="1.1" xmlns="http://www.w3.org/2000/svg"><style>path {fill: #313131} @media (prefers-color-scheme: dark) {path {fill:#f6f5f4}}</style><g transform="scale(3.78)"><rect width="100" height="100" fill="#33d17a"/><path d="m40.9 16.5c-9.63-0.0852-16.7 4.36-19.4 10-7.69 16.4 47.1 47.5 55.5 32.1 4.87-8.85 2.95-25.5-16.4-36.3v-0.0125c-7.26-4.04-14-5.72-19.7-5.77zm5.39 4.01c0.793-0.00598 1.67 0.0955 2.56 0.315 2.86 0.707 4.85 2.37 4.44 3.72-0.416 1.35-3.08 1.86-5.94 1.15-2.86-0.707-4.85-2.37-4.44-3.72 0.289-0.926 1.64-1.46 3.37-1.47zm-14.7 3.77c1.02-0.00196 1.78 0.314 2.05 0.949 0.536 1.27-1.13 3.32-3.71 4.6-2.59 1.27-5.12 1.28-5.66 0.00752-0.536-1.27 1.13-3.33 3.71-4.6 1.3-0.635 2.58-0.955 3.6-0.957zm32.3 5.1c1.18-0.00753 2.85 0.88 4.32 2.41 2.05 2.13 2.94 4.69 1.97 5.72-0.962 1.04-3.4 0.153-5.44-1.97-2.05-2.13-2.92-4.68-1.97-5.72 0.271-0.292 0.658-0.433 1.12-0.436zm-13.7 3.58c1.22 0.00265 2.58 0.364 3.86 1.1 2.92 1.69 4.33 4.71 3.17 6.75-1.18 2.04-4.5 2.32-7.43 0.628-2.92-1.69-4.33-4.71-3.17-6.75 0.658-1.15 2-1.73 3.57-1.73zm-16.4 2.81c1.09 0.00962 2.31 0.463 3.36 1.35 1.97 1.65 2.59 4.19 1.39 5.67-1.21 1.47-3.8 1.33-5.76-0.323-1.97-1.65-2.59-4.19-1.39-5.67 0.566-0.691 1.44-1.03 2.4-1.02zm38.6 12.2c1.08-0.0192 2.08 1.76 2.23 4.08 0.154 2.39-0.634 4.44-1.77 4.58-1.12 0.141-2.17-1.68-2.33-4.07-0.154-2.39 0.635-4.44 1.77-4.58 0.0351-0.00441 0.0703-0.0069 0.105-0.00752zm-14.2 2.08c0.651 0.00472 1.33 0.125 2.03 0.373 2.41 0.872 3.83 3.04 3.15 4.82-0.68 1.78-3.18 2.53-5.6 1.64-2.41-0.872-3.83-3.04-3.15-4.82 0.489-1.28 1.92-2.03 3.58-2.01zm-25.4 0.308c-5.3 4.55-8.77 9.58-11.1 15.8-5.13 13.6 11.9 24.6 22.1 11.1 3.73-5.01 6.05-10.2 7.34-16.3-5.42-1.54-14.9-6.78-18.2-10.5z"/></g></svg>
