<svg width="1e3" height="1e3" version="1.1" xmlns="http://www.w3.org/2000/svg"><style>path {fill: #313131} @media (prefers-color-scheme: dark) {path {fill:#f6f5f4}}</style><rect width="1e3" height="1e3" ry="150" fill="#33d17a" stroke-width="10"/><path d="m409 165c-96.3-0.852-167 43.6-194 100-76.9 164 471 475 555 321 48.7-88.5 29.5-255-164-363v-0.125c-72.6-40.4-140-57.2-197-57.7zm53.9 40.1c7.93-0.0598 16.7 0.955 25.6 3.15 28.6 7.07 48.5 23.7 44.4 37.2-4.16 13.5-30.8 18.6-59.4 11.5-28.6-7.07-48.5-23.7-44.4-37.2 2.89-9.26 16.4-14.6 33.7-14.7zm-147 37.7c10.2-0.0196 17.8 3.14 20.5 9.49 5.36 12.7-11.3 33.2-37.1 46-25.9 12.7-51.2 12.8-56.6 0.0752-5.36-12.7 11.3-33.3 37.1-46 13-6.35 25.8-9.55 36-9.57zm323 51c11.8-0.0753 28.5 8.8 43.2 24.1 20.5 21.3 29.4 46.9 19.7 57.2-9.62 10.4-34 1.53-54.4-19.7-20.5-21.3-29.2-46.8-19.7-57.2 2.71-2.92 6.58-4.33 11.2-4.36zm-137 35.8c12.2 0.0265 25.8 3.64 38.6 11 29.2 16.9 43.3 47.1 31.7 67.5-11.8 20.4-45 23.2-74.3 6.28-29.2-16.9-43.3-47.1-31.7-67.5 6.58-11.5 20-17.3 35.7-17.3zm-164 28.1c10.9 0.0962 23.1 4.63 33.6 13.5 19.7 16.5 25.9 41.9 13.9 56.7-12.1 14.7-38 13.3-57.6-3.23-19.7-16.5-25.9-41.9-13.9-56.7 5.66-6.91 14.4-10.3 24-10.2zm386 122c10.8-0.192 20.8 17.6 22.3 40.8 1.54 23.9-6.34 44.4-17.7 45.8-11.2 1.41-21.7-16.8-23.3-40.7-1.54-23.9 6.35-44.4 17.7-45.8 0.351-0.0441 0.703-0.069 1.05-0.0752zm-142 20.8c6.51 0.0472 13.3 1.25 20.3 3.73 24.1 8.72 38.3 30.4 31.5 48.2-6.8 17.8-31.8 25.3-56 16.4-24.1-8.72-38.3-30.4-31.5-48.2 4.89-12.8 19.2-20.3 35.8-20.1zm-254 3.08c-53 45.5-87.7 95.8-111 158-51.3 136 119 246 221 111 37.3-50.1 60.5-102 73.4-163-54.2-15.4-149-67.8-182-105z" stroke-width="10"/></svg>
